<svg width="1200" height="630" viewBox="0 0 1200 630" xmlns="http://www.w3.org/2000/svg" font-family="-apple-system, BlinkMacSystemFont, 'Segoe UI', 'PingFang TC', 'Microsoft JhengHei', sans-serif">
  <defs>
    <linearGradient id="bg" x1="0" y1="0" x2="1" y2="1">
      <stop offset="0" stop-color="#0d0f14"/>
      <stop offset="1" stop-color="#1a1e28"/>
    </linearGradient>
    <linearGradient id="title" x1="0" y1="0" x2="1" y2="0">
      <stop offset="0" stop-color="#ffffff"/>
      <stop offset="1" stop-color="#b9c2d6"/>
    </linearGradient>
  </defs>

  <rect width="1200" height="630" fill="url(#bg)"/>
  <rect width="1200" height="630" fill="none"/>

  <!-- Title -->
  <text x="600" y="92" text-anchor="middle" font-size="58" font-weight="800" fill="url(#title)" letter-spacing="2">思維顧問團</text>
  <text x="600" y="132" text-anchor="middle" font-size="20" fill="#7e8aa3" letter-spacing="3">DISTILLED MINDS · 用大師的視角審視你的決策</text>

  <!-- Cards -->
  <!-- Munger -->
  <g>
    <rect x="60" y="178" width="248" height="222" rx="16" fill="#161b25" stroke="#2a3142" stroke-width="1"/>
    <rect x="60" y="178" width="248" height="6" rx="3" fill="#4f8cff"/>
    <circle cx="92" cy="224" r="9" fill="#4f8cff"/>
    <text x="116" y="230" font-size="28" font-weight="700" fill="#eef1f7">芒格</text>
    <text x="60" y="262" font-size="14" fill="#7e8aa3"><tspan x="84">Charlie Munger</tspan></text>
    <line x1="84" y1="284" x2="284" y2="284" stroke="#2a3142" stroke-width="1"/>
    <text x="84" y="320" font-size="16" fill="#aab3c6">理性 · 逆向思維</text>
    <text x="84" y="350" font-size="16" fill="#aab3c6">避免愚蠢 · 能力圈</text>
  </g>
  <!-- Musk -->
  <g>
    <rect x="338" y="178" width="248" height="222" rx="16" fill="#161b25" stroke="#2a3142" stroke-width="1"/>
    <rect x="338" y="178" width="248" height="6" rx="3" fill="#ff5a4f"/>
    <circle cx="370" cy="224" r="9" fill="#ff5a4f"/>
    <text x="394" y="230" font-size="28" font-weight="700" fill="#eef1f7">馬斯克</text>
    <text x="362" y="262" font-size="14" fill="#7e8aa3">Elon Musk</text>
    <line x1="362" y1="284" x2="562" y2="284" stroke="#2a3142" stroke-width="1"/>
    <text x="362" y="320" font-size="16" fill="#aab3c6">第一性原理</text>
    <text x="362" y="350" font-size="16" fill="#aab3c6">快速試錯 · all-in</text>
  </g>
  <!-- Thiel -->
  <g>
    <rect x="616" y="178" width="248" height="222" rx="16" fill="#161b25" stroke="#2a3142" stroke-width="1"/>
    <rect x="616" y="178" width="248" height="6" rx="3" fill="#2fbf71"/>
    <circle cx="648" cy="224" r="9" fill="#2fbf71"/>
    <text x="672" y="230" font-size="28" font-weight="700" fill="#eef1f7">蒂爾</text>
    <text x="640" y="262" font-size="14" fill="#7e8aa3">Peter Thiel</text>
    <line x1="640" y1="284" x2="840" y2="284" stroke="#2a3142" stroke-width="1"/>
    <text x="640" y="320" font-size="16" fill="#aab3c6">逆向真理 · 壟斷</text>
    <text x="640" y="350" font-size="16" fill="#aab3c6">明確的樂觀</text>
  </g>
  <!-- Jobs -->
  <g>
    <rect x="894" y="178" width="248" height="222" rx="16" fill="#161b25" stroke="#2a3142" stroke-width="1"/>
    <rect x="894" y="178" width="248" height="6" rx="3" fill="#ffb020"/>
    <circle cx="926" cy="224" r="9" fill="#ffb020"/>
    <text x="950" y="230" font-size="28" font-weight="700" fill="#eef1f7">賈伯斯</text>
    <text x="918" y="262" font-size="14" fill="#7e8aa3">Steve Jobs</text>
    <line x1="918" y1="284" x2="1118" y2="284" stroke="#2a3142" stroke-width="1"/>
    <text x="918" y="320" font-size="16" fill="#aab3c6">體驗 · 簡約</text>
    <text x="918" y="350" font-size="16" fill="#aab3c6">專注 · 品味</text>
  </g>

  <!-- Roundtable strip -->
  <rect x="60" y="430" width="1082" height="104" rx="16" fill="#12161e" stroke="#2a3142" stroke-width="1"/>
  <rect x="60" y="430" width="6" height="104" rx="3" fill="#8b7bff"/>
  <text x="92" y="470" font-size="22" font-weight="700" fill="#eef1f7">圓桌模式 · Advisory Dialogue</text>
  <text x="92" y="504" font-size="17" fill="#aab3c6">讓四位獨立 agent 圍繞同一決策真實交鋒、互相反駁 — 最後收斂出「共識 / 分歧 / 紅線 / 決策框架」</text>

  <!-- Footer -->
  <text x="600" y="600" text-anchor="middle" font-size="14" fill="#5d6678">由「女娲 · Skill造人術」蒸餾　·　github.com/virus11456/nuwa-skill　·　Claude Code Skills</text>
</svg>
